<?xml version="1.0" encoding="utf-8" ?><svg xmlns="http://www.w3.org/2000/svg" xmlns:xlink="http://www.w3.org/1999/xlink" width="512" height="512" viewBox="0 0 512 512"><defs><linearGradient id="gradient_0" gradientUnits="userSpaceOnUse" x1="659.92688" y1="804.06799" x2="364.78558" y2="219.32478"><stop offset="0" stop-color="#36E067"/><stop offset="1" stop-color="#00C27D"/></linearGradient></defs><path fill="url(#gradient_0)" transform="scale(0.5 0.5)" d="M503.943 156.691C504.707 156.621 505.471 156.566 506.237 156.523C540.929 154.492 562.082 169.506 590.279 186.012L647.676 219.432L732.866 268.97C755.172 281.847 778.898 293.35 798.407 310.347C836.488 343.525 830.096 394.384 830.004 439.667L830 540.226L830.007 608.664C830.02 622.715 830.718 643.448 828.324 656.483C824.943 675.587 816.232 693.346 803.195 707.714C787.098 725.242 757.043 740.065 736.142 752.269L657.512 798.62L590.973 837.879C568.348 851.204 547.215 866.473 519.878 867.58C484.58 871.811 454.406 850.384 425.661 833.379L357.576 793.333L282.991 749.625C267.121 740.349 248.622 730.233 234.076 719.516C213.357 704.251 198.471 677.833 195.3 652.429C193.173 635.381 193.982 616.311 193.989 598.879L194.001 510.939L193.985 422.742C193.977 407.498 193.215 381.967 195.575 367.688C198.448 351.315 205.209 335.871 215.29 322.654C221.968 313.9 229.96 306.232 238.982 299.921C252.535 290.423 268.907 281.871 283.321 273.577L349.594 234.976L433.575 186.289C460.945 170.652 470.995 161.071 503.943 156.691ZM367.023 664.312C366.721 702.819 379.137 710.289 409.204 730.489L440.787 751.486C455.347 761.122 486.063 783.748 501.887 788.146C531.944 797.679 555.454 778.897 578.725 763.36L627.659 730.575L673.443 699.82C685.171 691.929 696.805 684.653 707.249 675.004C736.295 648.168 734.558 617.968 734.558 582.05L734.543 526.224L734.584 483.393C734.608 471.87 734.898 459.289 733.416 447.863C731.884 436.442 728.335 425.384 722.933 415.204C716.483 403.226 707.935 392.503 697.695 383.546C688.705 375.559 676.504 367.473 666.545 360.529L626.163 332.099L567.005 289.771C550.882 278.267 529.985 259.265 509.489 260.71C489.421 263.601 476.305 275.369 460.486 286.921L423.907 313.208L368.899 352.236C357.254 360.468 343.785 369.429 333.01 378.523C323.178 386.829 314.286 396.186 306.491 406.427C278.087 444.37 270.532 491.169 276.804 537.452C282.808 581.756 306.051 622.253 342.139 649.057C349.97 654.862 358.297 659.966 367.023 664.312Z"/><path fill="#19D171" transform="scale(0.5 0.5)" d="M510.889 294.111C514.29 293.976 519.667 295.736 522.5 297.582C533.474 304.731 544.381 312.928 555.029 320.569L612.742 361.76L651.782 389.604C662.047 396.87 672.528 403.521 681.536 412.395C705.398 435.903 703.406 461.714 703.424 492.302L703.45 543.297L703.465 585.477C703.464 604.453 704.909 622.756 694.67 639.688C690.707 646.123 685.681 651.839 679.806 656.592C671.231 663.577 660.209 670.635 650.868 676.877L613.302 702.181L564.342 735.368C555.127 741.669 546.095 748.156 536.691 754.168C527.379 760.121 518.07 762.824 507.621 757.677C496.203 752.053 485.597 743.956 474.957 736.858L416.41 698.13C402.908 689.201 400.409 688.718 397.226 673.11C402.04 672.918 406.846 672.55 411.633 672.008C445.586 668.394 477.696 654.76 503.877 632.84C509.045 628.502 515.483 622.914 519.642 617.702C521.912 615.293 524.575 611.968 526.575 609.271C568.005 553.409 550.699 481.418 544.869 417.876C543.148 399.116 546.776 378.61 519.323 383.531C509.128 385.397 499.377 389.531 489.794 393.438C439.874 413.786 388.77 441.689 356.723 486.439C336.566 514.585 323.599 559.635 329.41 593.9C313.889 568.731 306.322 547.218 305.205 517.342C304.131 488.628 308.365 462.088 323.557 437.133C330.377 425.798 338.935 415.605 348.917 406.925C359.014 398.069 370.286 390.417 381.25 382.679L415.642 358.141L458.342 327.718C469.687 319.536 498.594 297.13 510.889 294.111Z"/><path fill="#19D171" transform="scale(0.5 0.5)" d="M511.517 420.008C511.604 420.056 511.7 420.089 511.776 420.151C514.116 422.056 519.587 472.25 520.122 478.124C523.878 519.301 525.829 562.812 497.491 596.569C473.208 625.497 436.444 639.606 399.644 642.848C412.219 608.091 423.479 583.642 444.07 552.727C448.559 546.067 453.177 539.495 457.922 533.015C462.782 526.459 469.306 518.83 472.585 511.446C478.246 498.699 465.454 487.641 453.008 493.934C447.24 497.741 438.93 508.915 434.591 514.765C412.204 544.761 393.775 577.516 379.756 612.22C377.107 618.9 373.247 628.92 371.52 635.782C369.678 632.63 367.986 628.793 366.619 625.403C354.348 594.371 354.933 559.73 368.246 529.13C393.517 470.088 455.392 442.248 511.517 420.008Z"/></svg>